<?xml version="1.0" standalone="no"?>
<svg version="1.0" xmlns="http://www.w3.org/2000/svg"
 width="1576.000000" height="1759.000000" viewBox="0 0 1576.000000 1759.000000"
 preserveAspectRatio="xMidYMid meet">
<metadata>
Created by potrace 1.16, written by Peter Selinger 2001-2019
</metadata>
<g transform="translate(0.000000,1759.000000) scale(0.100000,-0.100000)"
fill="#000000" stroke="none">
<path d="M6805 17583 c-369 -23 -684 -85 -961 -187 -572 -211 -1013 -504
-1509 -1000 -560 -560 -873 -1089 -1035 -1748 -22 -89 -40 -171 -40 -182 0
-46 -7 -47 -161 -32 -213 21 -455 10 -969 -44 -348 -36 -581 -105 -855 -253
-488 -264 -739 -629 -785 -1142 -31 -340 62 -684 302 -1120 259 -471 467 -773
796 -1158 148 -173 197 -227 457 -502 208 -221 225 -239 378 -419 l135 -159
-13 -36 c-7 -20 -56 -157 -109 -305 -53 -149 -98 -271 -99 -272 -1 -1 -115
-19 -252 -39 -437 -63 -610 -105 -820 -197 -325 -143 -632 -414 -860 -759
-164 -248 -292 -578 -370 -949 -39 -187 -45 -433 -16 -630 39 -254 78 -386
170 -565 82 -162 95 -223 93 -460 -3 -269 20 -400 103 -597 74 -175 181 -295
329 -368 47 -23 92 -53 101 -66 9 -13 30 -64 46 -112 66 -187 153 -310 301
-429 86 -68 113 -115 148 -256 72 -293 219 -583 415 -815 186 -223 558 -548
805 -706 169 -107 482 -248 727 -325 131 -42 156 -65 214 -203 194 -460 476
-802 889 -1074 560 -369 1218 -527 1905 -455 490 51 681 105 1110 316 318 157
481 277 731 539 159 168 166 172 321 180 222 13 658 155 943 308 303 163 457
263 571 370 90 84 331 371 493 586 44 59 89 107 103 113 32 12 62 3 181 -56
49 -24 144 -59 213 -79 612 -172 628 -175 764 -176 134 0 374 39 534 86 183
55 538 227 729 353 337 223 696 606 948 1014 289 466 466 1084 433 1512 -5 61
-11 116 -14 123 -3 8 -2 25 1 38 5 19 34 38 148 94 249 122 457 273 663 481
258 262 411 511 527 858 86 258 87 267 93 656 5 311 3 350 -15 460 -108 630
-482 1159 -1078 1527 -236 146 -529 258 -769 293 -71 11 -81 38 -94 270 -13
214 -26 306 -112 790 -68 384 -88 478 -129 620 -62 212 -214 650 -299 862
-225 564 -650 1327 -1077 1935 -79 112 -306 441 -364 528 -249 373 -580 771
-950 1141 -225 226 -274 269 -665 595 -425 355 -616 484 -1015 685 -262 132
-468 216 -770 315 -399 131 -685 198 -955 224 -99 9 -534 11 -660 3z m581
-288 c680 -72 1390 -335 1999 -741 197 -131 652 -488 896 -702 394 -346 1112
-1226 1628 -1997 430 -641 645 -1039 962 -1783 142 -332 162 -386 209 -567 23
-88 70 -255 105 -370 162 -540 233 -1042 222 -1574 -6 -295 -19 -423 -73 -701
-38 -194 -39 -250 -8 -298 32 -49 143 -68 217 -37 88 37 131 102 148 222 6 43
22 125 35 183 14 58 31 161 38 229 11 109 15 126 35 142 30 25 42 24 152 -10
341 -105 588 -246 819 -467 292 -281 508 -666 579 -1035 113 -587 -29 -1200
-384 -1654 -114 -145 -310 -333 -427 -408 -96 -61 -260 -158 -263 -155 -1 2
-31 71 -65 153 -125 304 -226 462 -414 651 -143 142 -266 232 -447 328 -261
137 -489 203 -909 261 -331 46 -384 61 -419 118 -7 10 -32 96 -56 190 -55 218
-110 389 -191 594 -208 533 -379 822 -900 1523 -72 96 -195 265 -274 375 -169
235 -388 529 -473 635 -70 86 -332 393 -393 460 -22 25 -83 92 -134 150 -234
262 -489 507 -950 915 -85 75 -156 140 -158 145 -2 5 37 100 86 212 160 361
225 533 264 696 18 76 21 127 25 412 3 208 1 366 -7 438 -50 490 -262 944
-639 1369 -392 443 -941 703 -1591 753 -535 42 -1122 -134 -1529 -459 -101
-81 -359 -342 -449 -455 -139 -174 -218 -312 -312 -546 -82 -203 -95 -228
-125 -236 -20 -5 -267 49 -520 114 -16 4 -36 19 -44 33 -13 23 -12 37 13 140
96 394 236 731 419 1007 211 317 674 833 926 1033 540 427 1057 641 1722 713
172 19 479 19 655 1z m-426 -1733 c147 -35 250 -73 405 -152 168 -84 267 -147
402 -257 276 -223 509 -573 612 -923 44 -145 98 -397 117 -540 39 -296 -24
-693 -162 -1028 -79 -192 -150 -312 -183 -312 -10 0 -47 23 -82 51 -129 104
-383 256 -569 340 -71 33 -202 127 -194 141 12 19 49 2 234 -107 107 -63 205
-115 218 -115 28 0 439 203 467 231 15 15 20 32 19 72 -1 43 -28 116 -158 427
-87 206 -204 490 -261 630 -97 241 -136 341 -355 915 -148 388 -181 445 -254
445 -45 0 -67 -17 -306 -226 -369 -323 -591 -512 -610 -517 -16 -4 -28 27 -94
227 -144 438 -175 508 -231 522 -53 13 -94 -15 -224 -150 -69 -71 -234 -241
-365 -376 -304 -312 -610 -640 -619 -663 -4 -9 -2 -28 4 -41 13 -27 49 -44
347 -171 100 -43 182 -80 182 -84 0 -3 -4 -13 -9 -20 -8 -12 -67 10 -333 123
-178 76 -327 141 -331 146 -11 10 60 196 126 329 100 199 210 352 379 527 244
252 523 423 857 528 162 51 209 55 561 52 284 -3 336 -6 410 -24z m-1032 -584
c29 -68 86 -226 129 -351 86 -257 108 -295 165 -283 53 10 226 151 624 506
137 122 259 227 271 232 34 16 46 0 98 -130 272 -681 606 -1500 720 -1767 72
-167 77 -181 64 -205 -14 -25 -135 -91 -192 -105 -32 -8 -102 13 -203 62 -137
65 -188 133 -239 318 -15 55 -64 219 -110 365 -45 146 -115 373 -155 505 -91
304 -97 322 -129 357 -20 21 -36 29 -66 30 -63 2 -23 32 -550 -411 l-180 -151
-12 28 c-7 15 -62 143 -122 286 -77 179 -123 275 -152 312 -23 30 -46 54 -50
54 -40 0 -229 -208 -400 -440 -51 -70 -86 -100 -115 -100 -20 0 -249 105 -273
126 -4 3 811 882 820 883 3 1 29 -54 57 -121z m-39 -939 c89 -253 87 -248 115
-280 31 -36 58 -49 101 -49 70 0 152 50 325 200 237 205 393 331 400 323 4 -4
89 -273 189 -598 100 -324 189 -610 197 -634 7 -25 13 -46 11 -47 -1 -2 -36
19 -78 45 -361 231 -829 471 -1465 752 -111 48 -213 93 -228 99 -15 5 -26 15
-24 20 2 5 82 109 178 229 l175 220 17 -38 c9 -21 48 -130 87 -242z m-2864
106 c589 -63 787 -106 1333 -287 545 -180 705 -242 1062 -411 227 -107 909
-448 935 -467 6 -4 53 -29 105 -56 182 -93 446 -247 615 -359 478 -316 1379
-1042 1661 -1337 446 -468 967 -1093 1377 -1653 81 -110 203 -277 272 -371 69
-95 125 -177 125 -184 0 -17 -133 -7 -222 15 -282 73 -610 360 -1028 900 -51
66 -139 167 -196 225 -57 58 -110 121 -118 141 -8 20 -20 76 -26 124 -23 187
-61 319 -134 463 -114 225 -265 383 -451 472 -146 69 -306 95 -486 79 -199
-17 -344 -66 -577 -194 -80 -44 -100 -44 -322 0 -401 80 -726 107 -1315 109
-267 1 -353 -3 -520 -21 -356 -39 -357 -39 -392 -9 -20 17 -39 50 -58 103 -72
198 -157 342 -268 452 -177 176 -380 238 -582 177 -166 -51 -380 -266 -497
-501 -87 -173 -131 -329 -207 -730 -31 -159 -45 -216 -64 -244 -14 -20 -88
-101 -164 -180 -131 -135 -141 -144 -169 -137 -32 7 -457 427 -619 611 -349
397 -854 1219 -979 1595 -137 413 -107 836 82 1139 56 91 170 213 261 281 84
62 236 138 367 183 150 52 278 77 519 101 103 10 456 -5 680 -29z m1009 -3002
c25 -5 11 -12 -95 -47 -222 -75 -412 -170 -528 -264 l-43 -35 15 29 c79 153
424 347 582 328 22 -3 53 -8 69 -11z m2066 -83 c85 -11 207 -29 270 -40 63
-11 200 -34 305 -51 104 -17 191 -32 194 -34 2 -2 -32 -44 -76 -92 -159 -178
-321 -409 -418 -596 -54 -104 -58 -118 -45 -131 14 -14 23 -11 92 37 42 28
112 78 155 109 266 194 577 297 894 298 313 0 547 -98 780 -330 187 -186 311
-410 364 -658 13 -63 43 -284 61 -452 l7 -65 28 34 c48 58 96 169 139 321 23
80 45 148 49 153 4 4 55 -46 113 -110 427 -475 745 -673 1146 -715 132 -14
296 -1 422 32 97 25 127 25 172 -3 52 -31 100 -98 249 -348 87 -145 129 -225
129 -245 0 -33 -38 -109 -121 -241 -145 -232 -330 -407 -543 -512 -192 -94
-296 -106 -491 -56 -93 25 -129 29 -235 28 -106 0 -139 -4 -213 -27 -94 -28
-205 -80 -276 -129 -116 -79 -250 -234 -296 -342 -59 -137 -82 -360 -51 -497
30 -136 115 -286 220 -388 32 -30 65 -67 76 -81 l19 -25 -61 -85 c-162 -227
-214 -433 -173 -688 56 -341 249 -581 585 -724 135 -57 214 -72 375 -71 121 1
152 4 229 28 186 56 378 178 489 311 72 86 131 203 158 315 53 219 130 355
335 585 48 55 208 231 354 390 146 160 317 348 380 419 119 133 171 177 241
201 78 28 127 23 460 -51 399 -88 630 -204 854 -428 257 -258 389 -567 414
-971 13 -207 -5 -409 -54 -605 -121 -489 -405 -975 -794 -1358 -444 -439 -992
-671 -1466 -622 -240 24 -368 68 -701 237 -279 141 -334 163 -417 163 -115 0
-147 -31 -337 -325 -193 -299 -297 -430 -462 -581 -217 -200 -517 -356 -988
-515 -161 -55 -242 -70 -426 -78 -146 -6 -166 -10 -215 -34 -81 -39 -120 -77
-219 -207 -125 -164 -296 -323 -465 -431 -66 -43 -244 -135 -331 -172 -347
-148 -607 -201 -989 -200 -239 0 -386 15 -583 59 -608 136 -1167 551 -1421
1054 -60 120 -111 256 -141 375 -28 116 -100 169 -275 204 -344 69 -640 207
-960 447 -316 236 -549 503 -743 850 -49 87 -126 289 -116 305 7 12 71 22 98
15 13 -3 41 -25 63 -48 145 -156 185 -195 238 -233 173 -123 371 -178 640
-179 237 0 366 52 593 243 82 67 105 74 149 37 15 -13 61 -44 101 -70 39 -26
72 -49 72 -53 0 -3 -12 -19 -27 -37 -80 -95 -68 -192 33 -256 59 -37 188 -84
334 -121 183 -47 189 -49 200 -69 6 -11 24 -87 40 -168 92 -458 222 -731 477
-1002 199 -211 429 -341 716 -402 200 -42 596 -22 721 37 72 34 234 172 322
273 92 108 143 198 215 384 153 394 233 709 270 1057 14 139 6 435 -16 571
-20 124 -19 213 1 256 9 19 45 57 80 85 169 134 278 309 340 546 14 54 34 106
44 117 13 14 51 24 142 37 275 42 455 128 627 300 214 214 307 452 318 811 8
267 -10 326 -185 605 -121 193 -162 222 -317 230 -107 6 -124 -3 -175 -94 -40
-70 -118 -154 -190 -203 -30 -21 -111 -66 -180 -102 -493 -255 -1146 -472
-1832 -609 -144 -29 -221 -40 -227 -34 -7 7 -6 25 1 53 22 89 -33 172 -141
213 -80 30 -214 24 -286 -13 -63 -33 -87 -58 -173 -188 -116 -174 -225 -290
-387 -411 -223 -166 -511 -281 -915 -362 -294 -60 -403 -71 -695 -71 -340 1
-558 28 -822 104 -622 179 -1177 653 -1351 1155 -30 85 -78 277 -93 371 -55
340 55 867 264 1255 170 316 393 543 675 687 474 243 916 211 1670 -120 358
-157 965 -469 1097 -563 33 -24 83 -64 110 -90 28 -25 74 -58 103 -72 145 -69
381 22 399 155 7 54 -14 92 -107 187 -51 52 -80 91 -84 112 -6 26 11 87 83
305 109 328 155 505 171 654 17 152 8 548 -14 669 -48 259 -143 465 -288 620
-149 160 -306 240 -494 252 -346 22 -665 -212 -880 -648 -142 -288 -229 -620
-250 -957 -5 -77 -10 -111 -18 -108 -6 3 -45 19 -86 36 -84 35 -110 54 -110
82 0 55 168 518 280 773 141 320 375 735 475 843 121 131 352 260 647 361 147
51 159 49 238 -35 117 -126 209 -291 279 -503 23 -67 43 -127 46 -132 9 -13
62 17 76 43 23 44 -11 466 -52 645 -23 100 -21 119 14 132 36 14 566 30 857
25 190 -2 309 -9 420 -24z m-1857 -844 c67 -32 166 -126 221 -210 56 -85 158
-284 151 -296 -3 -5 -28 4 -55 20 -75 44 -137 62 -232 68 -154 8 -283 -49
-435 -192 -191 -180 -303 -427 -377 -829 -13 -70 -26 -131 -30 -134 -11 -12
-95 29 -113 55 -14 22 -18 52 -21 156 -7 214 26 444 90 645 96 303 222 515
372 626 171 126 301 154 429 91z m119 -580 c54 -26 123 -90 167 -155 37 -54
141 -236 141 -246 0 -17 -31 2 -81 50 -77 73 -135 100 -219 99 -84 -1 -143
-27 -215 -95 -65 -61 -145 -183 -186 -282 -54 -132 -70 -210 -76 -374 -5 -148
-6 -153 -27 -153 -43 0 -96 22 -117 48 -20 25 -21 34 -16 152 16 326 115 615
284 825 54 66 129 127 177 143 43 15 124 9 168 -12z m175 -589 c54 -30 93
-116 93 -206 0 -112 -32 -176 -105 -211 -39 -19 -50 -20 -75 -10 -36 15 -50
36 -83 132 -33 92 -33 94 -4 155 61 133 113 174 174 140z m6832 -1316 c19 -20
46 -85 89 -208 42 -122 85 -223 137 -323 146 -277 177 -346 170 -379 -5 -22
-69 -96 -214 -248 -251 -263 -290 -307 -440 -492 -64 -80 -168 -199 -231 -266
-75 -79 -131 -150 -161 -201 -25 -43 -71 -124 -103 -179 -31 -55 -66 -114 -77
-131 -11 -18 -26 -72 -35 -120 -8 -51 -27 -115 -44 -149 -57 -119 -205 -249
-337 -297 -72 -27 -304 -37 -410 -18 -130 22 -246 105 -333 239 -96 144 -113
279 -57 439 51 148 116 229 252 317 96 62 125 99 125 163 0 78 -47 137 -182
233 -254 180 -326 303 -284 484 26 110 77 205 142 264 73 67 143 102 294 147
l120 36 138 -25 c279 -53 318 -56 455 -32 213 37 403 154 652 400 117 117 192
212 226 290 22 49 51 85 70 85 6 0 23 -13 38 -29z m-5804 -3819 c150 -84 304
-138 450 -157 49 -7 49 -7 24 -20 -59 -32 -185 -72 -554 -181 -223 -66 -453
-140 -538 -174 -246 -99 -387 -126 -626 -117 -121 4 -157 9 -207 29 -34 12
-63 28 -65 33 -3 6 109 12 316 16 349 6 389 12 543 77 197 83 354 248 463 489
l42 93 31 -19 c17 -10 72 -42 121 -69z m1103 -291 c70 -71 70 -286 -1 -391
-47 -71 -87 -90 -608 -285 -567 -212 -642 -237 -784 -264 -274 -53 -448 -30
-548 73 -43 44 -68 89 -87 153 -30 101 18 131 234 144 349 21 598 107 1456
504 186 87 206 93 262 94 39 1 51 -4 76 -28z m-164 -928 c134 -67 140 -185 25
-480 -105 -269 -290 -430 -586 -509 -99 -27 -319 -25 -425 4 -186 50 -351 146
-491 285 -162 161 -178 266 -52 349 78 51 225 97 352 109 161 15 272 42 568
139 346 113 339 111 399 121 68 10 171 2 210 -18z"/>
<path d="M7255 9980 c-286 -40 -542 -180 -808 -439 -255 -248 -410 -480 -520
-777 -102 -273 -170 -524 -203 -739 -24 -165 -25 -477 0 -635 98 -639 366
-1019 828 -1174 199 -67 417 -49 678 55 367 147 689 474 915 927 132 266 206
492 254 782 35 207 64 508 55 572 -2 18 -11 98 -20 178 -63 585 -287 961 -693
1165 -144 73 -338 106 -486 85z m140 -316 c84 -20 209 -83 280 -141 44 -35 84
-84 146 -178 101 -150 125 -193 116 -202 -4 -3 -29 15 -57 41 -56 52 -123 87
-215 111 -232 60 -539 -77 -783 -349 -199 -223 -375 -623 -442 -1006 -28 -161
-37 -440 -20 -605 31 -306 126 -524 304 -700 66 -65 100 -90 181 -130 l100
-50 -45 -3 c-156 -12 -389 96 -531 244 -107 112 -172 225 -238 417 -82 238
-118 476 -107 701 22 426 88 689 260 1041 191 391 330 574 531 704 183 118
338 149 520 105z m265 -590 c181 -42 243 -127 410 -556 66 -172 77 -218 52
-218 -14 0 -61 76 -78 123 -40 113 -111 183 -222 217 -138 43 -270 19 -409
-73 -79 -53 -197 -172 -247 -250 -89 -138 -177 -351 -223 -535 -25 -96 -27
-126 -28 -282 0 -146 4 -192 23 -280 28 -125 91 -263 153 -334 89 -101 157
-140 282 -161 21 -3 35 -10 32 -14 -21 -36 -180 -63 -285 -50 -107 13 -170 42
-250 116 -60 56 -79 81 -121 168 -145 297 -161 735 -43 1175 81 301 245 611
415 780 152 152 355 218 539 174z m163 -790 c86 -44 111 -105 105 -259 -3
-102 -4 -105 -43 -162 -69 -101 -167 -131 -236 -73 -77 63 -115 258 -70 355
60 128 157 183 244 139z"/>
<path d="M12454 5415 c-366 -64 -747 -305 -987 -624 -180 -240 -311 -623 -331
-973 -5 -95 -5 -98 19 -114 13 -9 28 -13 33 -10 5 3 20 34 32 68 82 224 199
389 446 629 159 154 248 188 458 176 110 -6 195 -26 378 -89 65 -22 121 -38
124 -35 13 12 -44 97 -105 157 -80 79 -171 126 -378 197 -79 26 -143 51 -143
54 0 3 30 30 66 60 169 140 442 248 734 290 47 6 162 12 256 12 l171 1 -25 44
c-28 49 -78 77 -247 134 -84 29 -101 31 -255 34 -111 2 -192 -1 -246 -11z"/>
</g>
</svg>
